<svg xmlns="http://www.w3.org/2000/svg" xmlns:xlink="http://www.w3.org/1999/xlink" width="51" height="50" version="1.1" style=""><rect id="backgroundrect" width="51px" height="50px" x="0" y="0" fill="none" stroke="none"/>
    <title>icon_pay</title>
    <defs>
        <linearGradient x1="-5.28888679%" y1="0%" x2="107.21761%" y2="95.1982491%" id="linearGradient-1">
            <stop stop-color="#82DCFF" offset="0%"/>
            <stop stop-color="#1ED69D" offset="100%"/>
        </linearGradient>
        <path d="M17.7777778,2.22222222 L17.7777778,4.44444444 L13.3333333,4.44444444 L13.3333333,2.22222222 L17.7777778,2.22222222 L17.7777778,2.22222222 Z M6.66666667,2.22222222 L6.66666667,8.88888889 L2.22222222,8.88888889 L2.22222222,2.22222222 L6.66666667,2.22222222 L6.66666667,2.22222222 Z M17.7777778,11.1111111 L17.7777778,17.7777778 L13.3333333,17.7777778 L13.3333333,11.1111111 L17.7777778,11.1111111 L17.7777778,11.1111111 Z M6.66666667,15.5555556 L6.66666667,17.7777778 L2.22222222,17.7777778 L2.22222222,15.5555556 L6.66666667,15.5555556 L6.66666667,15.5555556 Z M20,0 L11.1111111,0 L11.1111111,6.66666667 L20,6.66666667 L20,0 L20,0 Z M8.88888889,0 L0,0 L0,11.1111111 L8.88888889,11.1111111 L8.88888889,0 L8.88888889,0 Z M20,8.88888889 L11.1111111,8.88888889 L11.1111111,20 L20,20 L20,8.88888889 L20,8.88888889 Z M8.88888889,13.3333333 L0,13.3333333 L0,20 L8.88888889,20 L8.88888889,13.3333333 Z" id="path-2"/>
    </defs>
    
<g class="currentLayer" style=""><title>Layer 1</title><g id="页面-1" stroke="none" stroke-width="1" fill="#ff7f00" fill-rule="evenodd" class="selected" fill-opacity="1">
        <g id="Home" fill="#ff7f00">
            <g id="Home导航" fill="#ff7f00">
                <g id="icon_pay" fill="#ff7f00">
                    <ellipse id="椭圆形" fill="#ff7f00" cx="25" cy="25" rx="24.93975830078125" ry="25"/>
                    <g id="#1" fill="#ff7f00">
                        <rect id="Base" opacity="0.806012835" x="15.000000953674316" y="15" width="20" height="20" fill="#ff7f00"/>
                        <mask id="mask-3" fill="white" transform="translate(14.939759254455566,15) translate(182.06024169921875,2) translate(0,817) translate(-182,-819) ">
                            <use xlink:href="#path-2" id="svg_1"/>
                        </mask>
                        <use id="Shape" fill="#FFFFFF" fill-rule="nonzero" xlink:href="#path-2" y="15" x="15.000000953674316"/>
                    </g>
                </g>
            </g>
        </g>
    </g></g></svg>