<svg xmlns="http://www.w3.org/2000/svg" xmlns:xlink="http://www.w3.org/1999/xlink" width="21" height="21" version="1.1"><rect id="backgroundrect" width="21" height="21" x="0" y="0" fill="none" stroke="none"/>
    <title>me</title>
    <defs>
        <linearGradient x1="-5.55630544%" y1="0%" x2="107.494358%" y2="95.1982491%" id="linearGradient-1">
            <stop stop-color="#82DCFF" offset="0%"/>
            <stop stop-color="#1ED69D" offset="100%"/>
        </linearGradient>
        <linearGradient x1="-5.55630544%" y1="42.0511676%" x2="107.494358%" y2="57.1854661%" id="linearGradient-2">
            <stop stop-color="#82DCFF" offset="0%"/>
            <stop stop-color="#1ED69D" offset="100%"/>
        </linearGradient>
        <path d="M9.6,1.06666667 C11.9564149,1.06666667 13.8666667,2.9769184 13.8666667,5.33333333 C13.8666667,7.68974827 11.9564149,9.6 9.6,9.6 C7.24358507,9.6 5.33333333,7.68974827 5.33333333,5.33333333 C5.33333333,2.9769184 7.24358507,1.06666667 9.6,1.06666667 L9.6,1.06666667 Z M9.6,3.2 C8.42179253,3.2 7.46666667,4.15512587 7.46666667,5.33333333 C7.46666667,6.5115408 8.42179253,7.46666667 9.6,7.46666667 C10.7782075,7.46666667 11.7333333,6.5115408 11.7333333,5.33333333 C11.7333333,4.15512587 10.7782075,3.2 9.6,3.2 L9.6,3.2 Z M9.6,10.6666667 C12.448,10.6666667 18.1333333,12.0853333 18.1333333,14.9333333 L18.1333333,18.1333333 L1.06666667,18.1333333 L1.06666667,14.9333333 C1.06666667,12.0853333 6.752,10.6666667 9.6,10.6666667 L9.6,10.6666667 Z M9.6,12.6933333 C6.432,12.6933333 3.09333333,14.2506667 3.09333333,14.9333333 L3.09333333,16.1066667 L16.1066667,16.1066667 L16.1066667,14.9333333 C16.1066667,14.2506667 12.768,12.6933333 9.6,12.6933333 Z" id="path-3"/>
        <linearGradient x1="-28.7766044%" y1="0%" x2="50%" y2="100%" id="linearGradient-5">
            <stop stop-color="#2D2D2D" offset="0%"/>
            <stop stop-color="#2D2D2D" offset="100%"/>
        </linearGradient>
    </defs>
    
<g class="currentLayer" style=""><title>Layer 1</title><g id="页面-1" stroke="none" stroke-width="1" fill="#ff7f00" fill-rule="evenodd" class="selected" fill-opacity="1">
        <g id="Me" fill="#ff7f00">
            <g id="Me导航" fill="#ff7f00">
                <g id="me" fill="#ff7f00">
                    <rect id="Base" x="0.84906005859375" y="0.6800003051757812" width="19.200000762939453" height="19.200000762939453" fill="#ff7f00"/>
                    <circle id="椭圆形" fill="#ff7f00" cx="10.449060440063477" cy="6.067230701446533" r="2.5927584171295166"/>
                    <path d="M3.03596354859377,18.260000305175822 L3.03596354859377,15.080000305175759 C5.37670349859377,13.129105305175813 7.847735668593771,12.166087405175745 10.449060058593773,12.190946805175827 C14.35104665859376,12.228235805175814 18.25852975859374,14.313573305175737 18.25852975859374,15.225473505175728 C18.25852975859374,15.833407005175786 18.25852975859374,16.844916005175833 18.25852975859374,18.260000305175822 L3.03596354859377,18.260000305175822 z" id="路径" fill="#ff7f00"/>
                    <mask id="mask-4" fill="white" transform="translate(358.84906005859375,32.68000030517578) translate(-1,794) translate(-357,-826) ">
                        <use xlink:href="#path-3" id="svg_1"/>
                    </mask>
                    <use id="Shape" fill="#000000" fill-rule="nonzero" xlink:href="#path-3" y="0.6800003051757812" x="0.84906005859375"/>
                    <g id="Color/02" mask="url(#mask-4)" fill="#ff7f00">
                        <rect id="Color" x="0.84906005859375" y="0.6800003051757812" width="19.200000762939453" height="19.200000762939453" fill="#ff7f00"/>
                    </g>
                </g>
            </g>
        </g>
    </g></g></svg>