<svg xmlns="http://www.w3.org/2000/svg" xmlns:xlink="http://www.w3.org/1999/xlink" width="21" height="21" version="1.1"><rect id="backgroundrect" width="21" height="21" x="0" y="0" fill="none" stroke="none"/>
    <title>sign_out</title>
    
<g class="currentLayer" style=""><title>Layer 1</title><g id="页面-1" stroke="none" stroke-width="1" fill="#ff7f00" fill-rule="evenodd" class="selected" fill-opacity="1">
        <g id="Me" fill="#ff7f00" fill-rule="nonzero">
            <g id="sign-out" fill="#ff7f00">
                <g id="sign_out" fill="#ff7f00">
                    <path d="M19.808,9.933012207031197 L14.153999999999996,4.290012207031282 C14.050728399999997,4.185890247031239 13.910150600000001,4.127323127031218 13.7635,4.127323127031218 C13.6168494,4.127323127031218 13.476271600000004,4.185890247031239 13.372999999999998,4.290012207031282 L12.591999999999999,5.071012207031231 C12.488529499999999,5.172392157031254 12.4302214,5.3111535470312665 12.4302214,5.456012207031222 C12.4302214,5.60087086703129 12.488529499999999,5.739632257031303 12.591999999999999,5.841012207031213 L16.387,9.625012207031205 L5.200000000000003,9.625012207031205 C4.896243390000002,9.625012207031205 4.649999999999999,9.871255597031222 4.649999999999999,10.175012207031273 L4.649999999999999,11.275012207031295 C4.649999999999999,11.578768807031224 4.896243390000002,11.82501220703125 5.200000000000003,11.82501220703125 L16.387,11.82501220703125 L12.591999999999999,15.609012207031242 C12.487878000000002,15.712283807031213 12.429310900000004,15.852861607031286 12.429310900000004,15.999512207031216 C12.429310900000004,16.14616280703126 12.487878000000002,16.28674060703122 12.591999999999999,16.390012207031305 L13.372999999999998,17.160012207031286 C13.476271600000004,17.264134207031248 13.6168494,17.322701307031252 13.7635,17.322701307031252 C13.910150600000001,17.322701307031252 14.050728399999997,17.264134207031248 14.153999999999996,17.160012207031286 L19.808,11.517012207031257 C19.9627617,11.362443107031254 20.0498074,11.152742107031258 20.05,10.934012207031287 L20.05,10.516012207031281 C20.0474656,10.297756667031194 19.9607724,10.08890481703122 19.808,9.933012207031197 zM8.5,18.425012207031273 L2.450000000000003,18.425012207031273 L2.450000000000003,3.0250122070312955 L8.5,3.0250122070312955 C8.80375661,3.0250122070312955 9.049999999999997,2.7787688170312776 9.049999999999997,2.4750122070312273 L9.049999999999997,1.3750122070312045 C9.049999999999997,1.071255595031289 8.80375661,0.82501220703125 8.5,0.82501220703125 L2.450000000000003,0.82501220703125 C1.2349735499999994,0.82501220703125 0.25,1.8099857570311997 0.25,3.0250122070312955 L0.25,18.425012207031273 C0.25,19.640038607031215 1.2349735499999994,20.625012207031205 2.450000000000003,20.625012207031205 L8.5,20.625012207031205 C8.80375661,20.625012207031205 9.049999999999997,20.378768807031292 9.049999999999997,20.07501220703125 L9.049999999999997,18.975012207031227 C9.049999999999997,18.6712556070313 8.80375661,18.425012207031273 8.5,18.425012207031273 z" id="Icon-color" fill="#ff7f00"/>
                </g>
            </g>
        </g>
    </g></g></svg>