<svg xmlns="http://www.w3.org/2000/svg" xmlns:xlink="http://www.w3.org/1999/xlink" width="20" height="20" version="1.1"><rect id="backgroundrect" width="20" height="20" x="0" y="0" fill="none" stroke="none"/>
    <title>编组</title>
    <defs>
        <linearGradient x1="-5.55630544%" y1="0%" x2="107.494358%" y2="95.1982491%" id="linearGradient-1">
            <stop stop-color="#82DCFF" offset="0%"/>
            <stop stop-color="#1ED69D" offset="100%"/>
        </linearGradient>
    </defs>
    
<g class="currentLayer" style=""><title>Layer 1</title><g id="页面-1" stroke="none" stroke-width="1" fill="#ff7f00" fill-rule="evenodd" class="selected" fill-opacity="1">
        <g id="Inbox" fill="#ff7f00">
            <g id="Inbox-导航" fill="#ff7f00">
                <g id="编组" fill="#ff7f00">
                    <path d="M17.349814975390643,18.697798857812472 L2.3119669753906464,18.697798857812472 C1.7056549753906438,18.697798857812472 1.2140869753906145,18.206062857812526 1.2140869753906145,17.599750857812523 L1.2140869753906145,8.302462857812543 L2.8940869753906213,2.56190285781247 C2.8940869753906213,1.9555908578124672 3.3856549753906506,1.4640228578125516 3.9919669753905964,1.4640228578125516 L15.669814975390636,1.4640228578125516 C16.276294975390613,1.4640228578125516 16.767862975390642,1.9555908578124672 16.767862975390642,2.56190285781247 L18.44786297539065,8.302462857812543 L18.44786297539065,17.599750857812523 C18.44786297539065,18.206062857812526 17.95629497539062,18.697798857812472 17.349814975390643,18.697798857812472 z" id="Stroke-1" stroke="#000000" stroke-width="2" fill="#ff7f00"/>
                    <line x1="1.214019775390625" y1="8.302463054656982" x2="18.447795867919922" y2="8.302463054656982" id="Stroke-3" stroke="#2B2B2B" stroke-width="2"/>
                    <path d="M12.224420575390639,7.798462857812524 C12.224420575390639,9.120286857812516 11.152748575390603,10.191958857812551 9.830924575390611,10.191958857812551 C8.509100575390619,10.191958857812551 7.437428575390641,9.120286857812516 7.437428575390641,7.798462857812524 " id="Stroke-5" stroke="#2B2B2B" stroke-width="2" fill="#ff7f00"/>
                    <path d="M11.838222175390626,7.462462857812511 C11.838222175390626,8.571094857812454 10.939422175390632,9.469726857812475 9.830958175390606,9.469726857812475 C8.722326175390606,9.469726857812475 7.823694175390642,8.571094857812454 7.823694175390642,7.462462857812511 C7.823694175390642,6.353830857812454 8.722326175390606,5.455198857812547 9.830958175390606,5.455198857812547 C10.939422175390632,5.455198857812547 11.838222175390626,6.353830857812454 11.838222175390626,7.462462857812511 " id="Fill-7" fill="#ff7f00"/>
                </g>
            </g>
        </g>
    </g></g></svg>